<?xml version="1.0" encoding="UTF-8" standalone="no"?>
<svg
   xmlns:dc="http://purl.org/dc/elements/1.1/"
   xmlns:cc="http://creativecommons.org/ns#"
   xmlns:rdf="http://www.w3.org/1999/02/22-rdf-syntax-ns#"
   xmlns:svg="http://www.w3.org/2000/svg"
   xmlns="http://www.w3.org/2000/svg"
   xmlns:sodipodi="http://sodipodi.sourceforge.net/DTD/sodipodi-0.dtd"
   xmlns:inkscape="http://www.inkscape.org/namespaces/inkscape"
   width="508mm"
   height="285.75mm"
   viewBox="0 0 508 285.75"
   version="1.1"
   id="svg2293"
   inkscape:version="1.0.1 (3bc2e813f5, 2020-09-07)"
   sodipodi:docname="light-linux-scalable.svg">
  <defs
     id="defs2287" />
  <sodipodi:namedview
     id="base"
     pagecolor="#ffffff"
     bordercolor="#666666"
     borderopacity="1.0"
     inkscape:pageopacity="0.0"
     inkscape:pageshadow="2"
     inkscape:zoom="0.66121049"
     inkscape:cx="950.75793"
     inkscape:cy="642.89267"
     inkscape:document-units="mm"
     inkscape:current-layer="layer1"
     inkscape:document-rotation="0"
     showgrid="false"
     fit-margin-top="0"
     fit-margin-left="0"
     fit-margin-right="0"
     fit-margin-bottom="0"
     inkscape:window-width="1920"
     inkscape:window-height="1052"
     inkscape:window-x="0"
     inkscape:window-y="28"
     inkscape:window-maximized="1" />
  <metadata
     id="metadata2290">
    <rdf:RDF>
      <cc:Work
         rdf:about="">
        <dc:format>image/svg+xml</dc:format>
        <dc:type
           rdf:resource="http://purl.org/dc/dcmitype/StillImage" />
        <dc:title />
      </cc:Work>
    </rdf:RDF>
  </metadata>
  <g
     inkscape:label="Livello 1"
     inkscape:groupmode="layer"
     id="layer1"
     transform="translate(164.04166,-24.190484)">
    <g
       id="g883"
       inkscape:export-xdpi="96"
       inkscape:export-ydpi="96">
      <rect
         style="fill:#ebdbb2;fill-opacity:1;stroke-width:27.7732;stroke-linecap:round;stroke-linejoin:round;paint-order:stroke markers fill"
         id="rect835"
         width="508"
         height="285.75"
         x="-164.04166"
         y="24.190485" />
      <path
         style="fill:#4f6a3f;fill-opacity:1;stroke:none;stroke-width:1.905;stroke-linejoin:round;stroke-miterlimit:4;stroke-dasharray:none;stroke-opacity:1;paint-order:stroke markers fill"
         d="m 224.61166,187.60649 c -3.72689,0.0884 -7.24019,16.82377 -6.78977,23.89724 0.0247,0.3884 0.043,0.77068 0.0584,1.14825 h 11.32179 c -2.89786,-8.49326 -3.59186,-17.08413 -3.64061,-24.69358 -0.31662,-0.24763 -0.63397,-0.35941 -0.94981,-0.35191 z"
         id="path920" />
      <path
         id="rect2943"
         style="fill:#8ec07c;fill-opacity:1;stroke:none;stroke-width:1.905;stroke-linejoin:round;stroke-miterlimit:4;stroke-dasharray:none;stroke-opacity:1;paint-order:stroke markers fill"
         d="m -164.04162,121.47926 v 91.17272 h 376.96045 c -9.4933,-14.38217 -5.06207,-39.00085 5.90197,-59.79324 5.63607,-10.68803 12.15458,-21.8286 15.39596,-31.37948 z" />
      <path
         style="fill:#6da3bb;fill-opacity:1;stroke:none;stroke-width:1.64978;stroke-linejoin:round;stroke-miterlimit:4;stroke-dasharray:none;stroke-opacity:1;paint-order:stroke markers fill"
         d="m 224.61166,187.60649 c -3.72689,0.0884 -7.24019,16.82377 -6.78977,23.89724 0.0247,0.3884 0.043,0.77068 0.0584,1.14825 h 11.32179 c -2.89786,-8.49326 -3.59186,-17.08413 -3.64061,-24.69358 -0.31662,-0.24763 -0.63397,-0.35941 -0.94981,-0.35191 z"
         id="path929" />
      <path
         id="rect2945"
         style="fill:#83a598;fill-opacity:1;stroke:none;stroke-width:1.64978;stroke-linejoin:round;stroke-miterlimit:4;stroke-dasharray:none;stroke-opacity:1;paint-order:stroke markers fill"
         d="m -164.04162,144.27218 v 68.3798 h 376.96045 c -9.4933,-14.38217 -5.06207,-39.00085 5.90197,-59.79324 1.49928,-2.84318 3.05915,-5.71761 4.6054,-8.58656 z" />
      <path
         id="path940"
         style="fill:#fabd2f;fill-opacity:1;stroke:none;stroke-width:5.09118;stroke-linejoin:round;stroke-miterlimit:4;stroke-dasharray:none;stroke-opacity:1;paint-order:stroke markers fill"
         d="M 0 540 L 0 712.29492 L 1424.7324 712.29492 C 1396.7884 669.96032 1400.7866 604.16205 1423.4902 540 L 0 540 z M 1468.9258 617.63477 C 1454.8399 617.96888 1441.5613 681.2207 1443.2637 707.95508 C 1443.357 709.42305 1443.4262 710.86789 1443.4844 712.29492 L 1486.2754 712.29492 C 1475.3228 680.19441 1472.6999 647.72497 1472.5156 618.96484 C 1471.319 618.02892 1470.1195 617.60642 1468.9258 617.63477 z "
         transform="matrix(0.26458333,0,0,0.26458333,-164.04166,24.190484)" />
      <path
         id="path949"
         style="fill:#fb4934;fill-opacity:1;stroke:none;stroke-width:3.6;stroke-linejoin:round;stroke-miterlimit:4;stroke-dasharray:none;stroke-opacity:1;paint-order:stroke markers fill"
         d="M 0 626.14648 L 0 712.29492 L 1424.7324 712.29492 C 1409.4899 689.20284 1403.7469 659.12925 1405.3594 626.14648 L 0 626.14648 z M 1459.7852 626.14648 C 1449.6662 644.36487 1441.9408 687.1806 1443.2637 707.95508 C 1443.357 709.42305 1443.4262 710.86789 1443.4844 712.29492 L 1486.2754 712.29492 C 1476.2241 682.83577 1473.1927 653.07509 1472.6211 626.14648 L 1459.7852 626.14648 z "
         transform="matrix(0.26458333,0,0,0.26458333,-164.04166,24.190484)" />
      <path
         d="m 267.64983,160.41156 c 5.02003,7.17797 3.82094,58.85533 -10.50537,67.67195 -2.07433,-6.59201 -5.25815,-15.68909 -5.25815,-15.68909 l -3.33481,16.15334 c -19.38972,-4.59281 -20.7458,-52.98898 -17.08785,-67.8755 -4.30565,8.39823 -19.19993,24.2436 -17.22966,42.62791 -12.33311,-28.30866 31.50481,-74.88132 25.35696,-93.63075 11.04053,7.43867 58.5925,53.60846 48.77011,92.29054 -0.61277,-12.13732 -7.89411,-33.7058 -20.71123,-41.5484 M 244.47374,95.660964 c 1.18463,0.0314 2.11879,1.016353 2.08739,2.199923 -0.03,1.183569 -1.01565,2.11843 -2.19886,2.087386 -1.18357,-0.03105 -2.11879,-1.016 -2.08704,-2.199922 0.031,-1.18357 1.01565,-2.117725 2.19851,-2.087387 m -9.33944,6.223356 c -0.22754,-0.29034 -0.4452,-0.6791 -0.80645,-1.04634 -0.33725,-0.37959 -0.71719,-0.80786 -1.13135,-1.274941 -0.44768,-0.431447 -0.93275,-0.898877 -1.44533,-1.393472 -0.5581,-0.443794 -1.10843,-0.950736 -1.72932,-1.412522 -0.62794,-0.454731 -1.2633,-0.938036 -1.95721,-1.364544 -0.67204,-0.458964 -1.38959,-0.869598 -2.11561,-1.266473 -0.7112,-0.423686 -1.46614,-0.771172 -2.19251,-1.141236 -0.75036,-0.322791 -1.46474,-0.697441 -2.19463,-0.974372 -1.4344,-0.614539 -2.81658,-1.089025 -4.00509,-1.495072 -1.19486,-0.381706 -2.20028,-0.70485 -2.91465,-0.872067 -0.71861,-0.179916 -1.12959,-0.282575 -1.12959,-0.282575 0,-7.05e-4 0.42474,-0.01199 1.16522,0.04798 0.74295,0.06632 1.80305,0.174625 3.05717,0.428625 1.24989,0.259997 2.70546,0.620183 4.21287,1.168753 0.7613,0.254705 1.52683,0.576086 2.30329,0.90558 0.75847,0.369359 1.54481,0.716139 2.29059,1.143353 0.74894,0.422275 1.4859,0.863953 2.17981,1.353961 0.72143,0.444853 1.34514,1.00965 1.97838,1.508125 0.62794,0.506589 1.1564,1.091142 1.69086,1.598789 0.49707,0.548922 0.93275,1.098197 1.34197,1.592439 0.37641,0.523522 0.6858,1.028349 0.96696,1.465789 0.29881,0.42545 0.45932,0.86078 0.63782,1.18569 0.32879,0.66992 0.49742,1.05551 0.49742,1.05551 0,0 -0.2667,-0.33691 -0.70062,-0.93098 m 42.90801,41.94633 c -14.75881,-22.39398 -14.32807,-37.91126 -21.87257,-46.2287 -10.72162,-11.819467 -20.9363,-4.115506 -25.49208,-5.6642 -4.55506,-1.549753 -16.97249,-6.989233 -22.20454,-2.223558 4.17901,0.313619 18.20016,3.131961 25.58698,13.590408 7.38646,10.4581 -5.30331,30.71177 -15.2393,49.55399 -11.65789,22.10823 -15.93179,48.54398 -3.93206,62.39862 3.12314,3.60504 3.17112,-0.006 2.933,-3.75355 -0.4886,-7.67292 3.68723,-26.7148 7.73994,-23.54509 0.0903,14.09735 2.37984,31.56373 16.83597,45.53584 2.39042,2.31105 1.11019,7.30568 -2.67476,9.4802 -1.51519,0.8696 -1.59774,2.23026 0.60924,2.76507 0.44027,0.10654 2.5908,-1.52223 3.19829,-1.45873 0.60783,0.0614 0.32949,2.04505 1.10948,2.05105 1.18675,0.01 2.35585,-1.96709 3.9624,-2.11737 0.68862,-0.0639 0.98566,1.86795 1.75366,1.76953 5.9436,-0.76341 -1.53176,-8.81133 2.61549,-10.68035 1.60338,-0.72425 4.52544,-1.15852 6.05155,0.83644 1.13912,1.48943 -3.32105,8.3252 0.74331,9.14611 0.7874,0.15911 2.44087,-1.71873 3.40501,-1.64676 1.21496,0.0907 1.76777,2.10467 2.99861,2.0387 1.09996,-0.0586 0.5401,-2.04929 1.43122,-2.24896 1.41076,-0.31503 4.03719,1.05128 4.24956,0.33479 0.90029,-3.03495 -6.8199,-2.83457 -5.50439,-12.14473 9.52747,-12.77302 9.07415,-34.61138 10.64436,-41.92517 8.00065,9.24102 6.96419,17.12736 6.43114,23.2537 -0.27693,3.18523 0.74965,6.68338 2.71815,2.69311 8.9341,-18.1095 14.29985,-37.82413 -8.09766,-71.81039"
         style="fill:#282828;fill-opacity:1;fill-rule:nonzero;stroke:none;stroke-width:0;stroke-miterlimit:4;stroke-dasharray:none"
         id="path5051"
         inkscape:connector-curvature="0"
         sodipodi:nodetypes="cccccccccccscccccccccccccccccccccccccccccccccccccccccccccsscccccccc" />
      <path
         id="path2112"
         style="color:#000000;font-style:normal;font-variant:normal;font-weight:normal;font-stretch:normal;font-size:medium;line-height:normal;font-family:sans-serif;font-variant-ligatures:normal;font-variant-position:normal;font-variant-caps:normal;font-variant-numeric:normal;font-variant-alternates:normal;font-variant-east-asian:normal;font-feature-settings:normal;font-variation-settings:normal;text-indent:0;text-align:start;text-decoration:none;text-decoration-line:none;text-decoration-style:solid;text-decoration-color:#000000;letter-spacing:normal;word-spacing:normal;text-transform:none;writing-mode:lr-tb;direction:ltr;text-orientation:mixed;dominant-baseline:auto;baseline-shift:baseline;text-anchor:start;white-space:normal;shape-padding:0;shape-margin:0;inline-size:0;clip-rule:nonzero;display:inline;overflow:visible;visibility:visible;isolation:auto;mix-blend-mode:normal;color-interpolation:sRGB;color-interpolation-filters:linearRGB;solid-color:#000000;solid-opacity:1;vector-effect:none;fill:#282828;fill-opacity:1;fill-rule:nonzero;stroke:none;stroke-width:1.1649;stroke-linecap:butt;stroke-linejoin:miter;stroke-miterlimit:4;stroke-dasharray:none;stroke-dashoffset:0;stroke-opacity:1;color-rendering:auto;image-rendering:auto;shape-rendering:auto;text-rendering:auto;enable-background:accumulate;stop-color:#000000"
         d="m 286.03808,249.30922 8.21725,16.98812 -8.35375,16.98813 h 1.29685 l 7.70343,-15.65713 0.32423,0.66739 -7.38301,14.98974 h 1.29685 l 6.73269,-13.65874 0.32421,0.66739 -6.41225,12.99135 h 1.29685 l 5.76193,-11.66036 0.32423,0.66739 -5.44151,10.99297 h 1.29875 l 4.78928,-9.66013 0.32423,0.66555 -4.47076,8.99458 h 1.30064 l 3.81664,-7.66174 3.90007,7.66174 h 1.30445 l -16.65633,-33.97625 z m 1.9415,0 16.65634,33.97625 h 1.29496 l -16.65633,-33.97625 z m 1.9415,0 16.65633,33.97625 h 1.29496 l -16.65632,-33.97625 z m 1.9415,0 16.65633,33.97625 h 1.29497 l -16.65633,-33.97625 z m 1.9415,0 16.65633,33.97625 h 1.29496 l -8.44097,-16.98813 8.06936,-16.98812 h -1.28738 l -7.42852,15.65713 -0.32421,-0.66739 7.09861,-14.98974 h -1.28738 l -6.45777,13.65874 -0.3242,-0.66738 6.12785,-12.99136 h -1.28549 l -5.48891,11.66036 -0.32421,-0.6674 5.15712,-10.99296 h -1.2836 l -4.52006,9.66013 -0.3242,-0.66555 4.18635,-8.99458 h -1.28169 l -3.55121,7.66174 -3.6896,-7.66174 z" />
      <path
         id="path2102"
         style="color:#000000;font-style:normal;font-variant:normal;font-weight:normal;font-stretch:normal;font-size:medium;line-height:normal;font-family:sans-serif;font-variant-ligatures:normal;font-variant-position:normal;font-variant-caps:normal;font-variant-numeric:normal;font-variant-alternates:normal;font-variant-east-asian:normal;font-feature-settings:normal;font-variation-settings:normal;text-indent:0;text-align:start;text-decoration:none;text-decoration-line:none;text-decoration-style:solid;text-decoration-color:#000000;letter-spacing:normal;word-spacing:normal;text-transform:none;writing-mode:lr-tb;direction:ltr;text-orientation:mixed;dominant-baseline:auto;baseline-shift:baseline;text-anchor:start;white-space:normal;shape-padding:0;shape-margin:0;inline-size:0;clip-rule:nonzero;display:inline;overflow:visible;visibility:visible;isolation:auto;mix-blend-mode:normal;color-interpolation:sRGB;color-interpolation-filters:linearRGB;solid-color:#000000;solid-opacity:1;vector-effect:none;fill:#282828;fill-opacity:1;fill-rule:nonzero;stroke:none;stroke-width:1.1649;stroke-linecap:butt;stroke-linejoin:miter;stroke-miterlimit:4;stroke-dasharray:none;stroke-dashoffset:0;stroke-opacity:1;color-rendering:auto;image-rendering:auto;shape-rendering:auto;text-rendering:auto;enable-background:accumulate;stop-color:#000000"
         d="m 258.7528,249.30922 v 21.25981 c 0,4.54234 2.42539,8.74073 6.35918,11.0119 3.93378,2.27126 8.78076,2.27126 12.71455,0 3.93379,-2.27117 6.35917,-6.46956 6.35917,-11.0119 v -21.25981 h -1.16415 v 21.25981 c 0,4.12802 -2.20021,7.93928 -5.7752,10.00329 -3.57498,2.06401 -7.97922,2.06401 -11.5542,0 -3.57499,-2.06401 -5.7752,-5.87527 -5.7752,-10.00329 v -21.25981 z m 1.9415,0 v 21.25981 c 0,3.84873 2.05533,7.4077 5.38842,9.33211 3.33309,1.92433 7.43996,1.92433 10.77306,0 3.33309,-1.92441 5.38841,-5.48338 5.38841,-9.33211 v -21.25981 h -1.16414 v 21.25981 c 0,3.43442 -1.83016,6.60625 -4.80445,8.32341 -2.97428,1.71726 -6.63842,1.71726 -9.6127,0 -2.97429,-1.71716 -4.80445,-4.88899 -4.80445,-8.32341 v -21.25981 z m 1.94151,0 v 21.25981 c 0,3.15513 1.68527,6.07282 4.41766,7.65029 2.73239,1.57805 6.09917,1.57805 8.83156,0 2.73239,-1.57747 4.41767,-4.49516 4.41767,-7.65029 v -21.25981 h -1.16415 v 21.25981 c 0,2.74082 -1.46011,5.27127 -3.8337,6.64168 -2.37358,1.37041 -5.29762,1.37041 -7.6712,0 -2.37359,-1.37041 -3.8337,-3.90086 -3.8337,-6.64168 v -21.25981 z m 1.9415,0 v 21.25981 c 0,2.46144 1.31525,4.73784 3.44691,5.96856 2.13169,1.23072 4.75837,1.23072 6.89006,0 2.13167,-1.23072 3.44692,-3.50712 3.44692,-5.96856 v -21.25981 h -1.16415 v 21.25981 c 0,2.04712 -1.09007,3.9364 -2.86295,4.95996 -1.77287,1.02355 -3.95682,1.02355 -5.7297,0 -1.77288,-1.02356 -2.86296,-2.91284 -2.86296,-4.95996 v -21.25981 z m 1.94149,0 v 21.25981 c 0,1.76784 0.9452,3.40481 2.47618,4.28878 1.53097,0.88387 3.41757,0.88387 4.94855,0 1.53097,-0.88397 2.47617,-2.52094 2.47617,-4.28878 v -21.25981 h -1.16415 v 21.25981 c 0,1.35352 -0.72002,2.60336 -1.8922,3.28007 -1.17217,0.67681 -2.61603,0.67681 -3.7882,0 -1.17218,-0.67671 -1.8922,-1.92655 -1.8922,-3.28007 v -21.25981 z" />
      <path
         id="path2092"
         style="color:#000000;font-style:normal;font-variant:normal;font-weight:normal;font-stretch:normal;font-size:medium;line-height:normal;font-family:sans-serif;font-variant-ligatures:normal;font-variant-position:normal;font-variant-caps:normal;font-variant-numeric:normal;font-variant-alternates:normal;font-variant-east-asian:normal;font-feature-settings:normal;font-variation-settings:normal;text-indent:0;text-align:start;text-decoration:none;text-decoration-line:none;text-decoration-style:solid;text-decoration-color:#000000;letter-spacing:normal;word-spacing:normal;text-transform:none;writing-mode:lr-tb;direction:ltr;text-orientation:mixed;dominant-baseline:auto;baseline-shift:baseline;text-anchor:start;white-space:normal;shape-padding:0;shape-margin:0;inline-size:0;clip-rule:nonzero;display:inline;overflow:visible;visibility:visible;isolation:auto;mix-blend-mode:normal;color-interpolation:sRGB;color-interpolation-filters:linearRGB;solid-color:#000000;solid-opacity:1;vector-effect:none;fill:#282828;fill-opacity:1;fill-rule:nonzero;stroke:none;stroke-width:1.1649;stroke-linecap:butt;stroke-linejoin:miter;stroke-miterlimit:4;stroke-dasharray:none;stroke-dashoffset:0;stroke-opacity:1;color-rendering:auto;image-rendering:auto;shape-rendering:auto;text-rendering:auto;enable-background:accumulate;stop-color:#000000"
         d="m 230.01899,249.30922 v 33.97625 h 1.16414 v -31.44696 l 0.77736,1.60212 v 29.84484 h 1.16413 v -27.44834 l 0.77736,1.60018 v 25.84816 h 1.16415 V 259.8339 l 0.77735,1.60019 v 21.85138 h 1.16415 v -19.4548 l 0.77735,1.60018 v 17.85462 h 1.16415 v -15.45803 l 7.44557,15.45803 h 1.29118 L 231.2476,249.30922 h -0.64655 z m 1.85238,0 16.46294,33.97625 h 1.29306 l -16.46292,-33.97625 z m 1.94149,0 16.46295,33.97625 h 1.29307 l -16.46293,-33.97625 z m 1.94151,0 16.46294,33.97625 h 1.29307 l -16.46293,-33.97625 z m 1.9415,0 16.5274,33.97625 h 0.64654 0.58207 v -33.97625 h -1.16415 v 31.44696 l -0.77735,-1.60018 v -29.84678 h -1.16414 v 27.44834 l -0.77736,-1.60018 v -25.84816 h -1.16415 v 23.45157 l -0.77736,-1.60018 v -21.85139 h -1.16413 v 19.4548 l -0.77736,-1.60018 v -17.85462 h -1.16414 v 15.45803 l -7.5309,-15.45803 z" />
      <path
         id="path2082"
         style="color:#000000;font-style:normal;font-variant:normal;font-weight:normal;font-stretch:normal;font-size:medium;line-height:normal;font-family:sans-serif;font-variant-ligatures:normal;font-variant-position:normal;font-variant-caps:normal;font-variant-numeric:normal;font-variant-alternates:normal;font-variant-east-asian:normal;font-feature-settings:normal;font-variation-settings:normal;text-indent:0;text-align:start;text-decoration:none;text-decoration-line:none;text-decoration-style:solid;text-decoration-color:#000000;letter-spacing:normal;word-spacing:normal;text-transform:none;writing-mode:lr-tb;direction:ltr;text-orientation:mixed;dominant-baseline:auto;baseline-shift:baseline;text-anchor:start;white-space:normal;shape-padding:0;shape-margin:0;inline-size:0;clip-rule:nonzero;display:inline;overflow:visible;visibility:visible;isolation:auto;mix-blend-mode:normal;color-interpolation:sRGB;color-interpolation-filters:linearRGB;solid-color:#000000;solid-opacity:1;vector-effect:none;fill:#282828;fill-opacity:1;fill-rule:nonzero;stroke:none;stroke-width:1.1649;stroke-linecap:butt;stroke-linejoin:miter;stroke-miterlimit:4;stroke-dasharray:none;stroke-dashoffset:0;stroke-opacity:1;color-rendering:auto;image-rendering:auto;shape-rendering:auto;text-rendering:auto;enable-background:accumulate;stop-color:#000000"
         d="m 217.01055,249.30922 v 33.97625 h 1.16415 v -33.97625 z m 1.9415,0 v 33.97625 h 1.16415 v -33.97625 z m 1.94151,0 v 33.97625 h 1.16414 v -33.97625 z m 1.9415,0 v 33.97625 h 1.16414 v -33.97625 z m 1.94149,0 v 33.97625 h 1.16415 v -33.97625 z" />
      <path
         id="path2072"
         style="color:#000000;font-style:normal;font-variant:normal;font-weight:normal;font-stretch:normal;font-size:medium;line-height:normal;font-family:sans-serif;font-variant-ligatures:normal;font-variant-position:normal;font-variant-caps:normal;font-variant-numeric:normal;font-variant-alternates:normal;font-variant-east-asian:normal;font-feature-settings:normal;font-variation-settings:normal;text-indent:0;text-align:start;text-decoration:none;text-decoration-line:none;text-decoration-style:solid;text-decoration-color:#000000;letter-spacing:normal;word-spacing:normal;text-transform:none;writing-mode:lr-tb;direction:ltr;text-orientation:mixed;dominant-baseline:auto;baseline-shift:baseline;text-anchor:start;white-space:normal;shape-padding:0;shape-margin:0;inline-size:0;clip-rule:nonzero;display:inline;overflow:visible;visibility:visible;isolation:auto;mix-blend-mode:normal;color-interpolation:sRGB;color-interpolation-filters:linearRGB;solid-color:#000000;solid-opacity:1;vector-effect:none;fill:#282828;fill-opacity:1;fill-rule:nonzero;stroke:none;stroke-width:1.1649;stroke-linecap:butt;stroke-linejoin:miter;stroke-miterlimit:4;stroke-dasharray:none;stroke-dashoffset:0;stroke-opacity:1;color-rendering:auto;image-rendering:auto;shape-rendering:auto;text-rendering:auto;enable-background:accumulate;stop-color:#000000"
         d="m 189.82956,249.30922 v 33.97625 h 1.16414 v -33.97625 z m 1.94149,0 v 33.97625 h 1.16415 v -33.97625 z m 1.9415,0 v 33.97625 h 1.16415 v -33.97625 z m 1.94151,0 v 33.97625 h 1.16414 v -33.97625 z m 1.9415,0 v 33.97625 h 17.08482 v -1.16607 h -15.92069 v -0.77543 h 15.92069 v -1.16606 h -15.92069 v -0.77544 h 15.92069 v -1.16606 h -15.92069 v -0.77544 h 15.92069 v -1.16607 h -15.92069 v -0.77543 h 15.92069 v -1.16607 h -15.92069 v -25.04418 z" />
    </g>
  </g>
</svg>
