<?xml version="1.0" encoding="UTF-8" standalone="no"?>
<svg
   xmlns:dc="http://purl.org/dc/elements/1.1/"
   xmlns:cc="http://creativecommons.org/ns#"
   xmlns:rdf="http://www.w3.org/1999/02/22-rdf-syntax-ns#"
   xmlns:svg="http://www.w3.org/2000/svg"
   xmlns="http://www.w3.org/2000/svg"
   xmlns:sodipodi="http://sodipodi.sourceforge.net/DTD/sodipodi-0.dtd"
   xmlns:inkscape="http://www.inkscape.org/namespaces/inkscape"
   version="1.1"
   id="svg5033"
   xml:space="preserve"
   width="1920"
   height="1080"
   viewBox="0 0 1920 1080"
   sodipodi:docname="gruvbox-light-gentoo-scalable.svg"
   inkscape:version="1.0.1 (3bc2e813f5, 2020-09-07)"
   inkscape:export-filename="/home/fjall/1577101987penguin-silhouette-3-freesvg.org.png"
   inkscape:export-xdpi="96"
   inkscape:export-ydpi="96"><metadata
     id="metadata5039"><rdf:RDF><cc:Work
         rdf:about=""><dc:format>image/svg+xml</dc:format><dc:type
           rdf:resource="http://purl.org/dc/dcmitype/StillImage" /><dc:title></dc:title></cc:Work></rdf:RDF></metadata><defs
     id="defs5037"><marker
       style="overflow:visible"
       id="Arrow1Lstart"
       refX="0"
       refY="0"
       orient="auto"
       inkscape:stockid="Arrow1Lstart"
       inkscape:isstock="true"><path
         transform="matrix(0.8,0,0,0.8,10,0)"
         style="fill:#c53d3d;fill-opacity:0.795004;fill-rule:evenodd;stroke:none;stroke-width:1pt;stroke-opacity:1"
         d="M 0,0 5,-5 -12.5,0 5,5 Z"
         id="path2155" /></marker><clipPath
       clipPathUnits="userSpaceOnUse"
       id="clipPath5049"><path
         d="M 0,600 H 600 V 0 H 0 Z"
         id="path5047"
         inkscape:connector-curvature="0" /></clipPath><marker
       style="overflow:visible"
       id="Arrow1Lstart-53"
       refX="0"
       refY="0"
       orient="auto"
       inkscape:stockid="Arrow1Lstart"
       inkscape:isstock="true"><path
         transform="matrix(0.8,0,0,0.8,10,0)"
         style="fill:#c53d3d;fill-opacity:0.795004;fill-rule:evenodd;stroke:none;stroke-width:1pt;stroke-opacity:1"
         d="M 0,0 5,-5 -12.5,0 5,5 Z"
         id="path2155-5" /></marker><clipPath
       clipPathUnits="userSpaceOnUse"
       id="clipPath5049-6"><path
         d="M 0,600 H 600 V 0 H 0 Z"
         id="path5047-2"
         inkscape:connector-curvature="0" /></clipPath><marker
       style="overflow:visible"
       id="Arrow1Lstart-5"
       refX="0"
       refY="0"
       orient="auto"
       inkscape:stockid="Arrow1Lstart"
       inkscape:isstock="true"><path
         transform="matrix(0.8,0,0,0.8,10,0)"
         style="fill:#c53d3d;fill-opacity:0.795004;fill-rule:evenodd;stroke:none;stroke-width:1pt;stroke-opacity:1"
         d="M 0,0 5,-5 -12.5,0 5,5 Z"
         id="path2155-3" /></marker><clipPath
       clipPathUnits="userSpaceOnUse"
       id="clipPath5049-5"><path
         d="M 0,600 H 600 V 0 H 0 Z"
         id="path5047-6"
         inkscape:connector-curvature="0" /></clipPath></defs><sodipodi:namedview
     pagecolor="#ffffff"
     bordercolor="#666666"
     borderopacity="1"
     objecttolerance="10"
     gridtolerance="10"
     guidetolerance="10"
     inkscape:pageopacity="0"
     inkscape:pageshadow="2"
     inkscape:window-width="1920"
     inkscape:window-height="1052"
     id="namedview5035"
     showgrid="false"
     inkscape:zoom="0.43372853"
     inkscape:cx="430.30185"
     inkscape:cy="329.99668"
     inkscape:window-x="0"
     inkscape:window-y="28"
     inkscape:window-maximized="1"
     inkscape:current-layer="g5041"
     inkscape:document-rotation="0"
     inkscape:snap-global="true"
     showguides="true"
     inkscape:guide-bbox="true"
     fit-margin-top="0"
     fit-margin-left="0"
     fit-margin-right="0"
     fit-margin-bottom="0"
     inkscape:snap-bbox="false"
     inkscape:bbox-paths="false"
     inkscape:object-paths="true"><inkscape:grid
       type="xygrid"
       id="grid997"
       originx="765.49429"
       originy="-129.70111" /></sodipodi:namedview><g
     id="g5041"
     inkscape:groupmode="layer"
     inkscape:label="penguin-clipart-publicdomainvectors.org"
     transform="matrix(1.3333333,0,0,-1.3333333,765.49429,670.29889)"><g
       id="g956"
       transform="translate(46.384326,0.71141601)" /><g
       id="g944"
       transform="translate(96.725563,0.71141601)" /><g
       id="g1693"><rect
         style="fill:#ebdbb2;fill-opacity:1;fill-rule:nonzero;stroke-width:78.7272;stroke-linecap:round;stroke-linejoin:round;paint-order:stroke markers fill"
         id="rect1025"
         width="1440"
         height="810"
         x="-574.12073"
         y="-502.72418"
         transform="scale(1,-1)" /><path
         id="path1033"
         style="fill:#8ec07c;fill-opacity:1;stroke:none;stroke-width:6.87112;stroke-linejoin:round;stroke-miterlimit:4;stroke-dasharray:none;stroke-opacity:1;paint-order:stroke markers fill"
         d="M 0 432.61133 L 0 647.38867 L 1394.9023 647.38867 C 1400.9399 632.74999 1412.7013 616.21843 1427.4375 600.74414 C 1441.9206 585.53559 1456.6292 572.18673 1488.6934 544.84766 C 1466.5142 532.67766 1432.0191 517.9935 1414.7109 498.76367 C 1408.3067 491.64837 1396.6997 475.52889 1398.9512 453.99219 C 1399.6503 447.30454 1401.5053 440.08763 1404.4121 432.61133 L 0 432.61133 z "
         transform="matrix(0.75000002,0,0,-0.75000002,-574.12073,502.72418)" /><path
         id="path1037"
         style="fill:#83a598;fill-opacity:1;stroke:none;stroke-width:5.95055;stroke-linejoin:round;stroke-miterlimit:4;stroke-dasharray:none;stroke-opacity:1;paint-order:stroke markers fill"
         d="M 0 486.30469 L 0 647.38867 L 1394.9023 647.38867 C 1400.9399 632.74999 1412.7013 616.21843 1427.4375 600.74414 C 1441.9206 585.53559 1456.6292 572.18673 1488.6934 544.84766 C 1466.5142 532.67766 1432.0191 517.9935 1414.7109 498.76367 C 1412.1789 495.95053 1408.8401 491.7111 1405.8594 486.30469 L 0 486.30469 z "
         transform="matrix(0.75000002,0,0,-0.75000002,-574.12073,502.72418)" /><path
         id="path1041"
         style="fill:#fabd2f;fill-opacity:1;stroke:none;stroke-width:4.85863;stroke-linejoin:round;stroke-miterlimit:4;stroke-dasharray:none;stroke-opacity:1;paint-order:stroke markers fill"
         d="M 0 540 L 0 647.38867 L 1394.9023 647.38867 C 1400.9399 632.74999 1412.7013 616.21843 1427.4375 600.74414 C 1441.9206 585.53559 1456.6292 572.18673 1488.6934 544.84766 C 1485.83 543.27652 1482.7514 541.6593 1479.541 540 L 0 540 z "
         transform="matrix(0.75000002,0,0,-0.75000002,-574.12073,502.72418)" /><path
         id="path1045"
         style="fill:#fb4934;fill-opacity:1;stroke:none;stroke-width:3.43556;stroke-linejoin:round;stroke-miterlimit:4;stroke-dasharray:none;stroke-opacity:1;paint-order:stroke markers fill"
         d="M 0 593.69336 L 0 647.38867 L 1394.9023 647.38867 C 1400.9399 632.74999 1412.7013 616.21843 1427.4375 600.74414 C 1429.6972 598.37124 1431.9904 596.03593 1434.3262 593.69336 L 0 593.69336 z "
         transform="matrix(0.75000002,0,0,-0.75000002,-574.12073,502.72418)" /><g
         id="g1681"><path
           id="path2973"
           style="fill:#282828;fill-opacity:1;fill-rule:evenodd;stroke:none;stroke-width:2.04968;stroke-linecap:butt;stroke-linejoin:miter;stroke-miterlimit:4;stroke-opacity:1"
           d="m 593.66666,257.21404 c -5.7052,-0.0405 -11.33474,-0.55081 -16.73979,-1.53927 -57.7582,-10.56268 -98.39322,-60.52391 -101.83486,-93.44495 -1.68862,-16.15253 7.01753,-28.24217 11.82074,-33.57865 12.98112,-14.42237 38.8523,-25.43497 55.48669,-34.562464 C 518.35131,73.584397 507.31995,63.572594 496.45761,52.166183 480.20366,35.09813 468.76471,16.310957 468.72977,2.8545771 c -0.0123,-4.3343827 -0.71223,-18.1572881 4.92606,-29.0679361 2.12033,-4.10306 8.15175,-17.792003 26.32267,-28.045095 11.6139,-6.553313 28.16335,-8.964197 44.36154,-6.652477 50.13119,7.154451 117.26988,49.672659 165.18102,89.269513 30.53474,25.235855 52.85284,49.691823 59.29983,61.732833 5.20174,9.71529 5.7816,27.147435 2.76428,38.083365 -8.57238,31.0695 -78.24509,94.70106 -135.21635,120.31407 -13.05237,5.86807 -28.12223,8.82878 -42.70216,8.72519 z m 17.20216,-99.97033 c 8.91227,-0.17031 22.64721,-5.05865 21.34758,-9.21258 -1.99433,-6.37436 -29.35635,-2.74464 -28.64659,6.00794 0.19334,2.38428 3.24798,3.28206 7.29901,3.20464 z" /><path
           id="path2975"
           style="fill:#ebdbb2;fill-opacity:1;fill-rule:evenodd;stroke:none;stroke-width:2.04968;stroke-linecap:butt;stroke-linejoin:miter;stroke-miterlimit:4;stroke-dasharray:none;stroke-opacity:1"
           d="M 558.59191,106.69597 C 542.84821,93.403169 532.38035,84.440197 519.2568,72.445513 487.65272,43.559962 466.17914,21.572963 477.25003,-8.4824408 490.02107,-43.153458 518.01634,-41.395445 550.84486,-34.951071 635.46465,-18.261583 774.5642,88.67573 767.47432,128.17443 c -5.73679,31.96034 -83.45013,95.50216 -129.46254,118.11335 -14.37457,7.0639 -30.94106,10.71729 -47.55748,9.93547 -63.26906,-2.9862 -112.67866,-60.58981 -110.15464,-91.80054 2.45554,-30.36398 79.19785,-56.82113 78.29225,-57.72674 z m -9.49701,106.00117 c -19.03814,-21.18164 -6.8658,-62.16258 24.70636,-84.4998 36.94319,-26.13722 96.76796,-30.869693 108.67311,-10.71248 22.20589,37.59783 -2.03959,77.35292 -38.23207,95.08674 -35.7647,17.52418 -83.27999,13.32908 -95.1474,0.1255 z"
           sodipodi:nodetypes="csssssssccssss" /><path
           id="path4976"
           style="display:inline;fill:#ebdbb2;fill-opacity:1;fill-rule:evenodd;stroke:none;stroke-width:2.04968;stroke-linecap:butt;stroke-linejoin:miter;stroke-miterlimit:4;stroke-dasharray:none;stroke-opacity:1"
           d="m 614.02088,129.08591 c 26.7274,-3.71503 49.76499,6.9887 53.36747,33.38093 2.7442,20.1042 -28.02405,42.0698 -46.52275,47.13605 -15.44765,4.23063 -48.98523,-1.20948 -51.24621,-30.42648 -2.35035,-30.37229 28.81698,-47.92431 44.40149,-50.0905 z m -13.08863,50.51507 c -17.5652,-27.21163 25.50339,-35.57759 32.09728,-30.61496 28.42767,21.39496 -24.35847,42.60375 -32.09728,30.61496 z"
           sodipodi:nodetypes="csssscss" /><path
           style="fill:#282828;fill-opacity:1;fill-rule:evenodd;stroke:none;stroke-width:2.04968;stroke-linecap:butt;stroke-linejoin:miter;stroke-miterlimit:4;stroke-dasharray:none;stroke-opacity:1"
           d="m 585.35459,248.99291 c -31.07013,-3.27427 -37.02064,-7.27315 -65.16776,-28.56883 -9.43363,-7.13737 -26.79629,-24.50374 -31.24504,-45.10632 -1.69432,-7.84659 0.30845,-14.62073 5.95957,-19.37166 18.09515,-15.21276 48.38087,-27.55495 73.22739,-39.48572 7.27758,-3.49453 2.45898,-9.83084 -9.27684,-19.990871 -29.61376,-25.637432 -69.65196,-56.845258 -72.4471,-80.625518 -1.31713,-11.2058404 2.51913,-26.432375 16.12049,-34.224565 15.88853,-9.102493 48.87079,-3.161413 70.89429,5.039676 32.18316,11.9843215 74.45891,38.433527 108.02176,64.432466 34.90114,27.035603 67.35154,61.374452 68.95672,66.975062 1.97111,6.87746 1.77463,13.22968 -2.02938,20.53309 -5.97368,11.46898 -13.96012,19.99116 -22.53546,29.53005 -23.00906,24.25731 -47.35406,45.572 -76.4813,61.90565 -21.0339,11.79514 -39.54024,21.53488 -63.99734,18.95749 z m 45.64034,-54.38305 c 22.44672,-10.85241 45.49779,-39.35757 -0.20002,-55.76422 -12.42632,-4.46137 -51.83554,10.95672 -50.62913,31.99758 1.75922,31.0813 23.42139,37.01756 50.82915,23.76664 z"
           id="path2977"
           sodipodi:nodetypes="cssssssssssscsscsss" /></g></g></g></svg>
